# AST/ASF file generated using VICON BodyLanguage
# -----------------------------------------------
:version 1.10
:name VICON
:units
  mass 1.0
  length 0.45
  angle deg
:documentation
   .ast/.asf automatically generated from VICON data using
   VICON BodyBuilder and BodyLanguage model FoxedUp or BRILLIANT.MOD
:root
   order TX TY TZ RX RY RZ
   axis XYZ
   position 0 0 0  
   orientation 0 0 0 
:bonedata
  begin
     id 1 
     name lhipjoint
     direction 0.543289 -0.788407 0.288535 
     length 2.57127 
     axis 0 0 0  XYZ
  end
  begin
     id 2 
     name lfemur
     direction 0.34202 -0.939693 0  
     length 8.47298  
     axis 0 0 20  XYZ
    dof rx ry rz
    limits (-160.0 20.0)
           (-70.0 70.0)
           (-60.0 70.0)
  end
  begin
     id 3 
     name ltibia
     direction 0.34202 -0.939693 0   
     length 8.13367   
     axis 0 0 20   XYZ
    dof rx
    limits (-10.0 170.0)
  end
  begin
     id 4 
     name lfoot
     direction 0.114037 -0.313314 0.942778   
     length 2.67113   
     axis -90 7.62852e-016 20   XYZ
    dof rx rz
    limits (-45.0 90.0)
           (-70.0 20.0)
  end
  begin
     id 5 
     name ltoes
     direction 1.536e-011 -4.21847e-011 1   
     length 1.32217   
     axis -90 7.62852e-016 20   XYZ
    dof rx
    limits (-90.0 20.0)
  end
  begin
     id 6 
     name rhipjoint
     direction -0.571293 -0.770752 0.282074   
     length 2.63017  
     axis 0 0 0  XYZ 
  end
  begin
     id 7 
     name rfemur
     direction -0.34202 -0.939693 0   
     length 8.60885   
     axis 0 0 -20   XYZ
    dof rx ry rz
    limits (-160.0 20.0)
           (-70.0 70.0)
           (-70.0 60.0)
  end
  begin
     id 8 
     name rtibia
     direction -0.34202 -0.939693 0   
     length 8.07673   
     axis 0 0 -20   XYZ
    dof rx
    limits (-10.0 170.0)
 end
 begin
     id 9 
     name rfoot
     direction -0.121336 -0.333368 0.934956   
     length 2.81602  
     axis -90 -7.62852e-016 -20   XYZ
    dof rx rz
    limits (-45.0 90.0)
           (-20.0 70.0)
  end
  begin
     id 10 
     name rtoes
     direction -1.53491e-011 -4.21808e-011 1   
     length 1.38905   
     axis -90 -7.62852e-016 -20   XYZ
    dof rx
    limits (-90.0 20.0)
  end
  begin
     id 11 
     name lowerback
     direction 0.0136776 0.999869 -0.00861835   
     length 2.14087   
     axis 0 0 0   XYZ
    dof rx ry rz
    limits (-20.0 45.0)
           (-30.0 30.0)
           (-30.0 30.0)
  end
  begin
     id 12 
     name upperback
     direction -0.00789158 0.999804 0.0181308   
     length 2.14151   
     axis 0 0 0   XYZ
    dof rx ry rz
    limits (-20.0 45.0)
           (-30.0 30.0)
           (-30.0 30.0)
  end
  begin
     id 13 
     name thorax
     direction -0.0135231 0.999666 0.0220247   
     length 2.13644   
     axis 0 0 0   XYZ
    dof rx ry rz
    limits (-20.0 45.0)
           (-30.0 30.0)
           (-30.0 30.0)
  end
  begin
     id 14 
     name lowerneck
     direction -0.0392259 0.997317 0.0618018   
     length 1.65045   
     axis 0 0 0   XYZ
    dof rx ry rz
    limits (-20.0 45.0)
           (-30.0 30.0)
           (-30.0 30.0)
  end
  begin
     id 15 
     name upperneck
     direction 0.0765547 0.994276 -0.0745319   
     length 1.66045   
     axis 0 0 0   XYZ
    dof rx ry rz
    limits (-20.0 45.0)
           (-30.0 30.0)
           (-30.0 30.0)
  end
  begin
     id 16
     name head
     direction 0.0241564 0.999031 -0.036785  
     length 1.66594  
     axis 0 0 0   XYZ
    dof rx ry rz
    limits (-20.0 45.0)
           (-30.0 30.0)
           (-30.0 30.0)
  end
  begin
     id 17 
     name lclavicle
     direction 0.967398 0.249018 0.0461573  
     length 3.75176  
     axis 0 0 0   XYZ
    dof ry rz
    limits (-20.0 10.0)
           (0.0 20.0)
  end
  begin
     id 18 
     name lhumerus
     direction 1 -4.48963e-011 -3.05005e-027   
     length 5.93342   
     axis 180 -30 -90   XYZ
    dof rx ry rz
    limits (-60.0 90.0)
           (-90.0 90.0)
           (-90.0 90.0)
  end
  begin
     id 19
     name lradius
     direction 1 -4.48957e-011 1.07006e-026   
     length 3.94763   
     axis 180 -30 -90   XYZ
    dof rx
    limits (-10.0 170.0)
  end
  begin
     id 20
     name lwrist
     direction 1 -4.48978e-011 1.92422e-026   
     length 1.97382   
     axis -1.18182e-014 90 90   XYZ
    dof ry
    limits (-180.0 0.0)
 end
  begin
     id 21 
     name lhand
     direction 1 -4.48931e-011 3.84844e-026   
     length 0.560187   
     axis -2.45563e-014 90 90   XYZ
    dof rx rz
    limits (-90.0 90.0)
           (-45.0 45.0)
  end
  begin
     id 22 
     name lfingers
     direction 1 -4.48952e-011 7.69687e-026   
     length 0.451637   
     axis -4.91126e-014 90 90   XYZ
    dof rx
    limits (0.0 90.0)
  end
  begin
     id 23
     name lthumb
     direction 0.707107 -6.34901e-011 0.707107   
     length 0.648463   
     axis -90 45 2.85299e-015   XYZ
    dof rx rz
    limits (-45.0 45.0)
           (-45.0 45.0)
  end
  begin
     id 24 
     name rclavicle
     direction -0.965946 0.258716 0.00371831   
     length 3.63667  
     axis 0 0 0   XYZ 
    dof ry rz
    limits (-10.0 20.0)
           (-20.0 0.0)
  end
  begin
     id 25 
     name rhumerus
     direction -1 -4.48966e-011 -1.78361e-028  
     length 6.28647   
     axis 180 30 90   XYZ
    dof rx ry rz
    limits (-90.0 60.0)
           (-90.0 90.0)
           (-90.0 90.0)
  end
  begin
     id 26 
     name rradius
     direction -1 -4.48961e-011 1.05248e-026   
     length 3.81645   
     axis 180 30 90   XYZ
    dof rx
    limits (-10.0 170.0)
  end
  begin
     id 27 
     name rwrist
     direction -1 -4.48979e-011 1.92422e-026   
     length 1.90822   
     axis -1.18182e-014 -90 -90   XYZ
    dof ry
    limits (-180.0 0.0)
  end
  begin
     id 28
     name rhand
     direction -1 -4.48937e-011 3.84844e-026   
     length 0.646185   
     axis -2.45563e-014 -90 -90   XYZ
    dof rx rz
    limits (-90.0 90.0)
           (-45.0 45.0)
  end
  begin
     id 29
     name rfingers
     direction -1 -4.48953e-011 7.69687e-026   
     length 0.520971   
     axis -4.91126e-014 -90 -90   XYZ
    dof rx
    limits (0.0 90.0)
  end
  begin
     id 30
     name rthumb
     direction -0.707107 -6.3494e-011 0.707107   
     length 0.748013   
     axis -90 -45 -2.85299e-015   XYZ
    dof rx rz
    limits (-45.0 45.0)
           (-45.0 45.0)
  end
:hierarchy
  begin
    root lhipjoint rhipjoint lowerback
    lhipjoint lfemur
    lfemur ltibia
    ltibia lfoot
    lfoot ltoes
    rhipjoint rfemur
    rfemur rtibia
    rtibia rfoot
    rfoot rtoes
    lowerback upperback
    upperback thorax
    thorax lowerneck lclavicle rclavicle
    lowerneck upperneck
    upperneck head
    lclavicle lhumerus
    lhumerus lradius
    lradius lwrist
    lwrist lhand lthumb
    lhand lfingers
    rclavicle rhumerus
    rhumerus rradius
    rradius rwrist
    rwrist rhand rthumb
    rhand rfingers
  end

#!OML:ASF H:\HAZMAT1\Patient Classification 1\Patient 3\Session 1\dancer.ASF
:FULLY-SPECIFIED
:DEGREES
134
upperback -1.326390 -12.617200 1.018430
rfoot -23.886999 -15.784100
lradius 77.396301
lthumb 35.620800 33.402699
rradius 25.190599
lwrist 28.933599
rhand -18.064800 -15.995000
rhumerus -35.328400 -16.208900 -15.043100
lowerneck -3.289860 -5.536130 -5.000680
lhand 10.521500 6.993870
ltibia 66.889603
head 3.549250 -3.670720 3.162530
rwrist -10.356000
lfingers 7.125020
rtoes -21.537701
lowerback 1.607970 -9.487090 0.923538
rfingers 7.125020
lclavicle 0.000000 0.000000
upperneck 7.274530 -7.680240 7.774540
rfemur -30.534500 14.752500 -5.001950
thorax -2.219350 -6.306870 0.980235
rclavicle 0.000000 0.000000
rtibia 38.810501
lfoot -27.771999 -12.855100
lhumerus 28.641100 -34.018600 24.511900
rthumb 8.207820 -45.815601
root 34.370899 17.326500 -17.636200 -320.640015 94.873596 -1055.099976
ltoes 0.314943
lfemur -45.051998 -30.434500 -2.343510
135
upperback -0.546022 -11.786000 1.277240
rfoot -31.189600 -34.952702
lradius 43.900002
lthumb 28.782900 35.133099
rradius 26.415800
lwrist 8.990000
rhand -14.967600 -15.310400
rhumerus -23.451599 -20.656099 -15.377600
lowerneck -2.961840 -6.350550 -4.752530
lhand 3.337380 7.332220
ltibia 60.574100
head 2.417920 -4.208810 3.138060
rwrist -11.427200
lfingers 7.125020
rtoes 0.459331
lowerback 1.217320 -8.866610 1.522460
rfingers 7.125020
lclavicle -0.000000 -0.000000
upperneck 3.949130 -8.647330 7.934940
rfemur -37.286499 26.455900 -16.394300
thorax -1.267270 -5.898360 0.751466
rclavicle -0.000000 -0.000000
rtibia 34.641102
lfoot -32.412399 8.481050
lhumerus 16.643400 -14.946200 16.441601
rthumb 11.196000 -44.991600
root 34.168598 17.480801 -20.296801 -164.013000 125.216003 -902.577026
ltoes 5.756060
lfemur -41.245499 -14.401500 -19.360901
136
upperback -2.263830 -3.872460 1.127770
rfoot -14.170700 -38.360699
lradius 28.004999
lthumb 28.309601 36.109402
rradius 47.298401
lwrist -0.792102
rhand -6.526070 -12.562000
rhumerus 0.408708 9.124940 -23.164200
lowerneck -3.048080 -6.302760 -4.140770
lhand 2.842080 8.229070
ltibia 56.480000
head 2.107800 -4.161980 1.930470
rwrist -27.875200
lfingers 7.125020
rtoes -10.871400
lowerback -1.043370 -2.918920 4.467310
rfingers 7.125020
lclavicle 0.000000 -0.000000
upperneck 3.704500 -8.426410 4.619940
rfemur -5.924100 17.670799 5.561060
thorax -1.962320 -2.003220 -1.302030
rclavicle 0.000000 -0.000000
rtibia 29.902300
lfoot -24.270700 2.988680
lhumerus -8.484350 7.079260 9.504180
rthumb 19.326599 -41.621601
root 34.191101 17.990900 -22.230499 -162.423004 157.735992 -903.762024
ltoes 7.186130
lfemur -44.753601 -12.947000 -17.398001
137
upperback -3.737390 3.033910 -2.014770
rfoot -28.364000 -28.117399
lradius 31.477699
lthumb 27.551701 37.107800
rradius 73.414101
lwrist 8.698220
rhand -3.425400 -13.737000
rhumerus 23.258200 27.104799 -27.215500
lowerneck -4.051880 -6.189740 -3.420090
lhand 2.049230 9.104080
ltibia 59.826000
head 2.510550 -4.076810 1.776920
rwrist -44.617500
lfingers 7.125020
rtoes -26.298100
lowerback -4.204540 2.365740 4.195080
rfingers 7.125020
lclavicle -0.000000 -0.000000
upperneck 4.497360 -8.315840 4.638330
rfemur 5.798270 11.994300 18.352800
thorax -1.173690 1.419660 -4.329740
rclavicle -0.000000 -0.000000
rtibia 20.465799
lfoot -24.476400 13.740800
lhumerus -18.846800 27.954300 0.674597
rthumb 22.305599 -42.469501
root 33.589100 17.608299 -24.004299 -159.253006 178.509003 -902.825012
ltoes 8.940060
lfemur -54.585899 -13.702900 -13.153700
138
upperback -3.185350 4.190490 -2.798800
rfoot -47.354698 -37.441601
lradius 32.866600
lthumb 30.936300 35.828701
rradius 89.073196
lwrist 9.428640
rhand -0.709326 -12.662600
rhumerus 26.958300 33.822300 -34.386002
lowerneck -1.464980 -6.316750 -2.557440
lhand 5.593920 8.415110
ltibia 66.229401
head 2.009050 -4.222060 1.491770
rwrist -45.738602
lfingers 7.125020
rtoes -6.113980
lowerback -4.646030 3.275290 5.214320
rfingers 7.125020
lclavicle -0.000000 -0.000000
upperneck 4.613130 -8.544110 3.993920
rfemur 8.488450 11.441000 22.628500
thorax -0.111549 2.020620 -5.619220
rclavicle -0.000000 -0.000000
rtibia 15.520400
lfoot -22.424999 8.720030
lhumerus -20.739799 29.771700 0.479239
rthumb 24.910801 -41.059200
root 32.709900 16.982401 -25.331800 -162.472000 181.455994 -902.284973
ltoes 3.406360
lfemur -58.721802 -5.495530 -13.268000
139
upperback -3.860250 4.222650 -3.195690
rfoot -45.555199 -33.470001
lradius 25.695601
lthumb 8.636690 52.322701
rradius 90.936203
lwrist 5.533750
rhand 2.243610 -13.735100
rhumerus 10.084000 39.374199 -42.208599
lowerneck -2.950750 -8.031380 -3.981190
lhand -17.620399 22.519400
ltibia 67.351097
head 3.363330 -5.375390 2.694040
rwrist -41.768799
lfingers 7.125020
rtoes -9.614220
lowerback -5.169690 3.268900 3.670700
rfingers 7.125020
lclavicle -0.000000 -0.000000
upperneck 6.480740 -11.081500 7.471430
rfemur 8.411560 6.422460 22.718399
thorax -0.588412 2.028750 -5.154860
rclavicle -0.000000 -0.000000
rtibia 16.279600
lfoot -24.608400 5.056970
lhumerus -25.415001 38.622101 -1.534520
rthumb 27.737499 -41.709000
root 32.282700 16.879801 -25.098600 -162.097000 180.095001 -901.818970
ltoes -7.236100
lfemur -59.063599 -1.844250 -13.509300
140
upperback -2.289700 -1.550330 -1.431300
rfoot -23.492901 -4.297880
lradius 21.530800
lthumb -3.448620 64.392899
rradius 54.009399
lwrist -7.808010
rhand -22.012400 -23.999100
rhumerus -16.075300 25.471901 -46.667900
lowerneck -5.035590 -4.128420 0.863326
lhand -30.135799 34.441002
ltibia 64.747200
head 3.869680 -2.757910 0.538093
rwrist -25.738501
lfingers 7.125020
rtoes -29.974501
lowerback -0.591010 -1.153770 2.478590
rfingers 7.125020
lclavicle 0.000000 0.000000
upperneck 8.915030 -5.899840 2.965440
rfemur -9.258500 -4.185570 8.420880
thorax -2.125340 -0.838279 -2.839330
rclavicle 0.000000 0.000000
rtibia 51.532700
lfoot -26.424900 4.055230
lhumerus -10.855800 41.095501 31.863100
rthumb 4.396840 -53.933498
root 32.176498 17.156401 -23.809700 -163.516006 176.964996 -902.671997
ltoes -3.016050
lfemur -51.712799 -5.120750 -11.537300
